<?xml version="1.0" standalone="no"?>
 <!DOCTYPE svg PUBLIC "-//W3C//DTD SVG 1.1//EN" 
 "http://www.w3.org/Graphics/SVG/1.1/DTD/svg11.dtd"> 
<svg
  xmlns:svg="http://www.w3.org/2000/svg"
  xmlns="http://www.w3.org/2000/svg"
  xmlns:xlink="http://www.w3.org/1999/xlink"
  version="1.1"
  width="210.1342mm" height="74.0156mm" viewBox="0.0000 0.0000 210.1342 74.0156">
<title>SVG Image created as msicp-brd.svg date 2024/08/03 00:13:13 </title>
  <desc>Image generated by PCBNEW </desc>
<g style="fill:#000000; fill-opacity:1.0000;stroke:#000000; stroke-opacity:1.0000;
stroke-linecap:round; stroke-linejoin:round;"
 transform="translate(0 0) scale(1 1)">
</g>
<g style="fill:#000000; fill-opacity:0.0; 
stroke:#000000; stroke-width:0.0000; stroke-opacity:1; 
stroke-linecap:round; stroke-linejoin:round;">
</g>
<g style="fill:#000000; fill-opacity:0.0; 
stroke:#000000; stroke-width:8.0000; stroke-opacity:1; 
stroke-linecap:round; stroke-linejoin:round;">
<text x="105.0750" y="59.7750"
textLength="194.8911" font-size="57.2000" lengthAdjust="spacingAndGlyphs"
text-anchor="middle" opacity="0">Ms ICP</text>
<g class="stroked-text"><desc>Ms ICP</desc>
</g>
<g style="fill:#000000; fill-opacity:1.0000; 
stroke:#000000; stroke-width:0.0000; stroke-opacity:1; 
stroke-linecap:round; stroke-linejoin:round;">
<path style="fill:#000000; fill-opacity:1.0000; 
stroke:#000000; stroke-width:0.0000; stroke-opacity:1; 
stroke-linecap:round; stroke-linejoin:round;fill-rule:evenodd;"
d="M 24.4571,12.6678
34.0340,42.8782
43.5795,12.6678
57.2009,12.6678
57.2009,56.0860
46.8277,56.0860
46.8277,45.9523
47.8231,25.1972
37.4499,56.0860
30.6182,56.0860
20.2135,25.1654
21.2194,45.9523
21.2194,56.0860
10.8671,56.0860
10.8671,12.6678
Z" /> 
<path style="fill:#000000; fill-opacity:1.0000; 
stroke:#000000; stroke-width:0.0000; stroke-opacity:1; 
stroke-linecap:round; stroke-linejoin:round;fill-rule:evenodd;"
d="M 79.7496,47.1501
79.7028,46.6910
79.5625,46.2676
79.3286,45.8801
79.0011,45.5283
78.6567,45.2624
78.4189,45.1149
77.9478,44.8748
77.4865,44.6805
77.0913,44.5335
76.6540,44.3854
76.1745,44.2361
75.6528,44.0858
75.0889,43.9343
74.4828,43.7817
74.0553,43.6793
73.6091,43.5764
73.3790,43.5248
72.9204,43.4182
72.4718,43.3075
72.0333,43.1929
71.6049,43.0743
71.1866,42.9518
70.7783,42.8252
70.1848,42.6280
69.6139,42.4218
69.0657,42.2066
68.5401,41.9825
68.0372,41.7495
67.5569,41.5075
67.2494,41.3412
66.8075,41.0838
66.3858,40.8162
65.9841,40.5387
65.6025,40.2510
65.2410,39.9534
64.8995,39.6456
64.5782,39.3278
64.2769,38.9999
63.9957,38.6620
63.7345,38.3140
63.5716,38.0764
63.3450,37.7097
63.1407,37.3332
62.9587,36.9467
62.7990,36.5504
62.6615,36.1443
62.5464,35.7282
62.4535,35.3023
62.3830,34.8665
62.3347,34.4208
62.3087,33.9653
62.3037,33.6561
62.3179,33.1097
62.3604,32.5756
62.4312,32.0537
62.5303,31.5440
62.6578,31.0466
62.8136,30.5615
62.9977,30.0887
63.2101,29.6281
63.4508,29.1797
63.7199,28.7436
64.0173,28.3198
64.3430,27.9082
64.6971,27.5089
65.0794,27.1218
65.4901,26.7470
65.9291,26.3844
66.3911,26.0378
66.8705,25.7136
67.3675,25.4118
67.8820,25.1323
68.4140,24.8751
68.9635,24.6404
69.5305,24.4279
70.1151,24.2379
70.7172,24.0702
71.3368,23.9248
71.9739,23.8019
72.6285,23.7012
73.3007,23.6230
73.9903,23.5671
74.6975,23.5336
75.4222,23.5224
76.2010,23.5337
76.9603,23.5676
77.7003,23.6241
78.4209,23.7032
79.1221,23.8050
79.8038,23.9293
80.4662,24.0763
81.1092,24.2458
81.7327,24.4380
82.3369,24.6528
82.9216,24.8902
83.4870,25.1502
84.0330,25.4328
84.5595,25.7380
85.0667,26.0658
85.5545,26.4162
86.0188,26.7850
86.4533,27.1680
86.8577,27.5651
87.2322,27.9764
87.5768,28.4019
87.8914,28.8415
88.1760,29.2953
88.4307,29.7632
88.6554,30.2453
88.8501,30.7416
89.0149,31.2520
89.1497,31.7766
89.2546,32.3153
89.3295,32.8682
89.3744,33.4353
89.3894,34.0165
79.4248,34.0165
79.4091,33.5467
79.3618,33.1072
79.2318,32.5048
79.0309,31.9706
78.7590,31.5046
78.4163,31.1068
78.0027,30.7772
77.5181,30.5157
76.9626,30.3225
76.5529,30.2316
76.1117,30.1710
75.6390,30.1406
75.3908,30.1369
74.9149,30.1581
74.4631,30.2217
74.0353,30.3278
73.6316,30.4764
73.2519,30.6674
72.8963,30.9008
72.7608,31.0061
72.4011,31.3469
72.1159,31.7176
71.9051,32.1181
71.7687,32.5484
71.7066,33.0085
71.7025,33.1685
71.7482,33.6515
71.8852,34.0987
72.1136,34.5101
72.4334,34.8857
72.7696,35.1714
73.0018,35.3309
73.4454,35.5790
73.8545,35.7674
74.3117,35.9469
74.8170,36.1174
75.2275,36.2394
75.6652,36.3564
76.1299,36.4683
76.6217,36.5753
77.1406,36.6771
77.6688,36.7784
78.1847,36.8834
78.6882,36.9920
79.1794,37.1045
79.6582,37.2206
80.1248,37.3405
80.5789,37.4641
81.0207,37.5914
81.4502,37.7225
81.8674,37.8572
82.1386,37.9492
82.5808,38.1087
83.0090,38.2759
83.4232,38.4508
83.8233,38.6334
84.2094,38.8236
84.5814,39.0216
85.2833,39.4405
85.9291,39.8901
86.5188,40.3705
87.0522,40.8815
87.5296,41.4234
87.9507,41.9959
88.3157,42.5991
88.6246,43.2331
88.8773,43.8978
89.0738,44.5933
89.2142,45.3194
89.2985,46.0763
89.3265,46.8639
89.3114,47.4061
89.2660,47.9355
89.1902,48.4522
89.0842,48.9561
88.9479,49.4472
88.7814,49.9257
88.5845,50.3913
88.3573,50.8442
88.0999,51.2844
87.8121,51.7118
87.4941,52.1264
87.1458,52.5283
86.7672,52.9175
86.3583,53.2939
85.9191,53.6575
85.4497,54.0084
84.9562,54.3421
84.4449,54.6543
83.9159,54.9450
83.3691,55.2141
82.8046,55.4618
82.2223,55.6878
81.6222,55.8924
81.0044,56.0754
80.3688,56.2369
79.7154,56.3768
79.0443,56.4953
78.3554,56.5922
77.6487,56.6675
76.9243,56.7213
76.1822,56.7536
75.4222,56.7644
74.9135,56.7586
74.4117,56.7412
73.9168,56.7122
73.4288,56.6717
72.9476,56.6195
72.4733,56.5557
72.0059,56.4804
71.5453,56.3934
71.0917,56.2949
70.6449,56.1847
70.2050,56.0630
69.7719,55.9296
69.3458,55.7847
68.9265,55.6282
68.5141,55.4601
68.1086,55.2804
67.7133,55.0894
67.3289,54.8900
66.9556,54.6823
66.5932,54.4662
66.0701,54.1263
65.5718,53.7677
65.0981,53.3902
64.6492,52.9939
64.2249,52.5788
63.8253,52.1449
63.4503,51.6921
63.1001,51.2205
62.7780,50.7372
62.4876,50.2493
62.2289,49.7566
62.0018,49.2593
61.8065,48.7574
61.6428,48.2508
61.5108,47.7395
61.4105,47.2236
61.3418,46.7030
61.3049,46.1778
61.2978,45.8251
70.5814,45.8251
70.6182,46.3653
70.6973,46.8679
70.8186,47.3326
70.9821,47.7596
71.1879,48.1488
71.4360,48.5003
71.7263,48.8140
72.0588,49.0899
72.4248,49.3309
72.8158,49.5398
73.2316,49.7165
73.6724,49.8611
74.1380,49.9735
74.6285,50.0539
75.1439,50.1021
75.6842,50.1181
76.1765,50.1054
76.6370,50.0671
77.0658,50.0033
77.5571,49.8878
77.9988,49.7323
78.3908,49.5370
78.7333,49.3019
79.0787,48.9743
79.3526,48.6117
79.5551,48.2141
79.6861,47.7815
79.7457,47.3138
Z" /> 
<path style="fill:#000000; fill-opacity:1.0000; 
stroke:#000000; stroke-width:0.0000; stroke-opacity:1; 
stroke-linecap:round; stroke-linejoin:round;fill-rule:evenodd;"
d="M 120.2157,56.0860
109.9054,56.0860
109.9054,12.6678
120.2157,12.6678
Z" /> 
<path style="fill:#000000; fill-opacity:1.0000; 
stroke:#000000; stroke-width:0.0000; stroke-opacity:1; 
stroke-linecap:round; stroke-linejoin:round;fill-rule:evenodd;"
d="M 162.0230,41.4154
161.9890,41.9797
161.9394,42.5357
161.8741,43.0834
161.7932,43.6229
161.6966,44.1541
161.5844,44.6769
161.4566,45.1915
161.3131,45.6979
161.1540,46.1959
160.9793,46.6857
160.7890,47.1671
160.5830,47.6403
160.3613,48.1053
160.1241,48.5619
159.8711,49.0102
159.6026,49.4503
159.3193,49.8801
159.0221,50.2977
158.7109,50.7029
158.3858,51.0960
158.0469,51.4768
157.6940,51.8453
157.3272,52.2015
156.9464,52.5456
156.5518,52.8773
156.1432,53.1968
155.7207,53.5040
155.2844,53.7990
154.8340,54.0817
154.3698,54.3522
153.8917,54.6104
153.3996,54.8564
152.8961,55.0874
152.3837,55.3036
151.8624,55.5048
151.3322,55.6911
150.7930,55.8626
150.2449,56.0191
149.6879,56.1607
149.1220,56.2874
148.5471,56.3992
147.9633,56.4961
147.3706,56.5781
146.7690,56.6452
146.1584,56.6973
145.5390,56.7346
144.9106,56.7570
144.2733,56.7644
143.7483,56.7590
143.2303,56.7426
142.7194,56.7153
142.2155,56.6771
141.7186,56.6280
141.2287,56.5680
140.7458,56.4971
140.2700,56.4153
139.8012,56.3225
139.3394,56.2189
138.8846,56.1043
138.4368,55.9788
137.9961,55.8425
137.5624,55.6952
137.1357,55.5370
136.7160,55.3678
136.3033,55.1878
135.8977,54.9969
135.4991,54.7950
135.1075,54.5823
134.7229,54.3586
134.3453,54.1240
133.9748,53.8785
133.6112,53.6221
133.2547,53.3548
132.9052,53.0766
132.5628,52.7875
132.2273,52.4874
131.8989,52.1765
131.5775,51.8546
131.2631,51.5218
130.9557,51.1781
130.6566,50.8238
130.3670,50.4606
130.0868,50.0883
129.8162,49.7070
129.5551,49.3168
129.3035,48.9176
129.0613,48.5094
128.8287,48.0922
128.6055,47.6660
128.3919,47.2308
128.1877,46.7867
127.9930,46.3335
127.8079,45.8714
127.6322,45.4003
127.4660,44.9202
127.3094,44.4311
127.1622,43.9331
127.0245,43.4260
126.8963,42.9100
126.7776,42.3850
126.6684,41.8510
126.5687,41.3080
126.4785,40.7560
126.3978,40.1951
126.3265,39.6251
126.2648,39.0462
126.2126,38.4583
126.1699,37.8614
126.1366,37.2555
126.1129,36.6406
126.0987,36.0168
126.0939,35.3839
126.0939,33.2215
126.1025,32.4287
126.1281,31.6484
126.1709,30.8804
126.2308,30.1249
126.3078,29.3818
126.4019,28.6512
126.5131,27.9329
126.6414,27.2271
126.7868,26.5337
126.9493,25.8527
127.1290,25.1842
127.3257,24.5281
127.5396,23.8843
127.7706,23.2531
128.0186,22.6342
128.2838,22.0278
128.5664,21.4360
128.8640,20.8614
129.1767,20.3038
129.5045,19.7633
129.8473,19.2398
130.2052,18.7334
130.5782,18.2441
130.9662,17.7718
131.3693,17.3166
131.7874,16.8784
132.2206,16.4573
132.6689,16.0532
133.1322,15.6663
133.6106,15.2963
134.1040,14.9435
134.6125,14.6077
135.1336,14.2906
135.6648,13.9940
136.2060,13.7179
136.7573,13.4622
137.3186,13.2269
137.8900,13.0122
138.4715,12.8178
139.0631,12.6440
139.6647,12.4906
140.2764,12.3576
140.8982,12.2451
141.5300,12.1531
142.1719,12.0815
142.8239,12.0303
143.4859,11.9996
144.1580,11.9894
144.6429,11.9935
145.1218,12.0057
145.5948,12.0261
146.0617,12.0547
146.5227,12.0914
146.9777,12.1362
147.4268,12.1893
147.8698,12.2504
148.3069,12.3198
148.7380,12.3973
149.1632,12.4829
149.5823,12.5767
149.9955,12.6787
150.4027,12.7888
151.1992,13.0335
151.9718,13.3109
152.7205,13.6208
153.4453,13.9634
154.1462,14.3387
154.8232,14.7465
155.4762,15.1870
156.1054,15.6601
156.7107,16.1659
157.2880,16.6990
157.8333,17.2569
158.3466,17.8395
158.8279,18.4469
159.2772,19.0790
159.6945,19.7360
160.0797,20.4176
160.4330,21.1241
160.7542,21.8553
161.0435,22.6113
161.3007,23.3920
161.5260,24.1975
161.6266,24.6095
161.7192,25.0277
161.8038,25.4521
161.8804,25.8827
161.9490,26.3195
162.0096,26.7625
162.0623,27.2117
162.1069,27.6670
151.7965,27.6670
151.7740,27.1763
151.7380,26.7032
151.6886,26.2478
151.6256,25.8100
151.5491,25.3899
151.4090,24.7927
151.2385,24.2352
151.0377,23.7174
150.8064,23.2394
150.5448,22.8010
150.2528,22.4022
149.9304,22.0432
149.8161,21.9323
149.4513,21.6198
149.0521,21.3380
148.6188,21.0869
148.1511,20.8665
147.6492,20.6769
147.1131,20.5181
146.5426,20.3900
145.9380,20.2926
145.5158,20.2448
145.0784,20.2107
144.6258,20.1902
144.1580,20.1833
143.6840,20.1948
143.2261,20.2292
142.7842,20.2866
142.3584,20.3668
141.9486,20.4701
141.3640,20.6679
140.8155,20.9174
140.3031,21.2185
139.8268,21.5712
139.3866,21.9755
138.9825,22.4314
138.6145,22.9389
138.4999,23.1196
138.2825,23.5003
138.0785,23.9084
137.8877,24.3440
137.7101,24.8070
137.5458,25.2974
137.3948,25.8151
137.2570,26.3604
137.1325,26.9330
137.0212,27.5330
136.9233,28.1604
136.8385,28.8153
136.7671,29.4975
136.7089,30.2072
136.6639,30.9443
136.6323,31.7088
136.6138,32.5007
136.6138,35.5959
136.6155,36.0280
136.6205,36.4523
136.6407,37.2775
136.6742,38.0718
136.7212,38.8349
136.7816,39.5670
136.8555,40.2681
136.9427,40.9381
137.0434,41.5771
137.1575,42.1850
137.2851,42.7618
137.4260,43.3076
137.5804,43.8223
137.7482,44.3060
137.9295,44.7586
138.1241,45.1802
138.3322,45.5707
138.5580,45.9339
138.9331,46.4349
139.3519,46.8831
139.8143,47.2786
140.3203,47.6213
140.8700,47.9114
141.2607,48.0754
141.6708,48.2160
142.1004,48.3332
142.5493,48.4270
143.0176,48.4973
143.5053,48.5441
144.0124,48.5676
144.2733,48.5705
144.7133,48.5638
145.1402,48.5438
145.7557,48.4888
146.3417,48.4038
146.8979,48.2888
147.4245,48.1438
147.9215,47.9688
148.3888,47.7639
148.8264,47.5289
149.2344,47.2639
149.6128,46.9689
149.7323,46.8639
150.0704,46.5242
150.3773,46.1491
150.6531,45.7386
150.8978,45.2927
151.1114,44.8114
151.2938,44.2948
151.4451,43.7427
151.5653,43.1552
151.6544,42.5323
151.6964,42.0973
151.7247,41.6466
151.7336,41.4154
Z" /> 
<path style="fill:#000000; fill-opacity:1.0000; 
stroke:#000000; stroke-width:0.0000; stroke-opacity:1; 
stroke-linecap:round; stroke-linejoin:round;fill-rule:evenodd;"
d="M 184.4284,12.6749
185.0306,12.6963
185.6239,12.7319
186.2083,12.7818
186.7837,12.8459
187.3502,12.9242
187.9078,13.0168
188.4564,13.1236
188.9962,13.2447
189.5270,13.3800
190.0489,13.5296
190.5619,13.6934
191.0659,13.8714
191.5611,14.0637
192.0473,14.2703
192.5245,14.4911
192.9920,14.7237
193.4459,14.9684
193.8865,15.2252
194.3137,15.4941
194.7274,15.7751
195.1277,16.0682
195.5145,16.3733
195.8880,16.6906
196.2480,17.0199
196.5946,17.3614
196.9278,17.7149
197.2475,18.0805
197.5538,18.4582
197.8467,18.8480
198.1262,19.2499
198.3922,19.6639
198.6447,20.0861
198.8809,20.5154
199.1008,20.9517
199.3045,21.3951
199.4918,21.8454
199.6629,22.3029
199.8176,22.7673
199.9561,23.2388
200.0782,23.7174
200.1841,24.2029
200.2737,24.6955
200.3470,25.1952
200.4040,25.7019
200.4448,26.2156
200.4692,26.7364
200.4774,27.2642
200.4598,28.0414
200.4071,28.7989
200.3193,29.5367
200.1964,30.2548
200.0384,30.9532
199.8452,31.6318
199.6170,32.2908
199.3536,32.9300
199.0551,33.5495
198.7215,34.1493
198.3527,34.7295
197.9489,35.2899
197.5099,35.8305
197.0358,36.3515
196.5266,36.8528
195.9823,37.3344
195.4073,37.7900
194.8063,38.2163
194.1791,38.6132
193.5258,38.9807
192.8465,39.3188
192.1409,39.6275
191.4093,39.9067
190.6516,40.1566
189.8677,40.3771
189.0578,40.5682
188.6430,40.6527
188.2217,40.7299
187.7939,40.7997
187.3595,40.8622
186.9186,40.9173
186.4712,40.9651
186.0173,41.0055
185.5568,41.0386
185.0898,41.0643
184.6163,41.0827
184.1362,41.0937
183.6497,41.0974
177.0485,41.0974
177.0485,56.0860
166.6962,56.0860
166.6962,20.7451
177.0485,20.7451
177.0485,33.0201
183.8173,33.0201
184.3685,33.0071
184.8945,32.9679
185.3953,32.9027
185.8708,32.8114
186.3211,32.6940
186.7462,32.5505
187.1460,32.3810
187.5206,32.1853
187.9808,31.8839
188.3962,31.5361
188.7670,31.1432
189.0884,30.7119
189.3603,30.2422
189.5828,29.7341
189.7173,29.3277
189.8239,28.8998
189.9027,28.4502
189.9537,27.9791
189.9768,27.4863
189.9784,27.3172
189.9641,26.7693
189.9213,26.2423
189.8499,25.7365
189.7500,25.2517
189.6215,24.7879
189.4645,24.3452
189.2789,23.9236
189.0648,23.5230
188.8222,23.1435
188.5510,22.7850
188.3543,22.5578
188.0413,22.2392
187.7076,21.9514
187.3530,21.6944
186.9776,21.4681
186.5814,21.2725
186.1643,21.1077
185.7265,20.9737
185.2679,20.8703
184.7884,20.7978
184.2881,20.7559
183.9430,20.7451
177.0485,20.7451
166.6962,20.7451
166.6962,12.6678
183.8173,12.6678
Z" /> 
</g><g >
</g>
<g >
</g>
<g >
</g>
<g >
</g>
<g >
</g>
<g >
</g>
<g >
</g>
<g >
</g>
<g >
</g>
<g >
</g>
<g >
</g>
<g >
</g>
<g >
</g>
<g >
</g>
<g >
</g>
<g >
</g>
<g >
</g>
<g >
</g>
<g >
</g>
<g >
</g>
<g >
</g>
<g >
</g>
<g >
</g>
<g >
</g>
<g >
</g>
<g >
</g>
<g >
</g>
<g >
</g>
<g >
</g>
<g >
</g>
<g >
</g>
<g >
</g>
<g >
</g>
<g >
</g>
<g >
</g>
<g >
</g>
<g >
</g>
<g >
</g>
<g >
</g>
<g >
</g>
<g >
</g>
<g >
</g>
<g >
</g>
<g >
</g>
<g >
</g>
<g >
</g>
<g >
</g>
<g >
</g>
<g >
</g>
<g >
</g>
<g >
</g>
<g >
</g>
</g>
<g style="fill:#000000; fill-opacity:1.0000; 
stroke:#000000; stroke-width:0.0000; stroke-opacity:1; 
stroke-linecap:round; stroke-linejoin:round;">
</g>
<g style="fill:#000000; fill-opacity:1.0000; 
stroke:#000000; stroke-width:0.1000; stroke-opacity:1; 
stroke-linecap:round; stroke-linejoin:round;">
</g>
<g style="fill:#000000; fill-opacity:0.0; 
stroke:#000000; stroke-width:0.1000; stroke-opacity:1; 
stroke-linecap:round; stroke-linejoin:round;">
<path d="M203.0750 5.0750
L7.0750 5.0750
" />
<path d="M5.0750 63.0750 A2.0000 2.0000 0.0 0 0 7.0750 65.0750" />
<path d="M7.0750 65.0750
L203.0750 65.0750
" />
<path d="M5.0750 7.0750
L5.0750 63.0750
" />
<path d="M205.0750 7.0750 A2.0000 2.0000 0.0 0 0 203.0750 5.0750" />
<path d="M203.0750 65.0750 A2.0000 2.0000 0.0 0 0 205.0750 63.0750" />
<path d="M7.0750 5.0750 A2.0000 2.0000 0.0 0 0 5.0750 7.0750" />
<path d="M205.0750 63.0750
L205.0750 7.0750
" />
<g >
</g>
<g >
</g>
<g >
</g>
<g >
</g>
<g >
</g>
<g >
</g>
<g >
</g>
<g >
</g>
<g >
</g>
<g >
</g>
<g >
</g>
<g >
</g>
<g >
</g>
<g >
</g>
<g >
</g>
<g >
</g>
<g >
</g>
<g >
</g>
<g >
</g>
<g >
</g>
<g >
</g>
<g >
</g>
<g >
</g>
<g >
</g>
<g >
</g>
<g >
</g>
<g >
</g>
<g >
</g>
<g >
</g>
<g >
</g>
<g >
</g>
<g >
</g>
<g >
</g>
<g >
</g>
<g >
</g>
<g >
</g>
<g >
</g>
<g >
</g>
<g >
</g>
<g >
</g>
<g >
</g>
<g >
</g>
<g >
</g>
<g >
</g>
<g >
</g>
<g >
</g>
<g >
</g>
<g >
</g>
<g >
</g>
<g >
</g>
<g >
</g>
<g >
</g>
</g> 
</svg>
